<svg xmlns="http://www.w3.org/2000/svg" viewBox="0 0 394.65 469.55"><g id="Layer_2" data-name="Layer 2"><g id="Layer_1-2" data-name="Layer 1"><path d="M391.27,132.83,311.83,9.62a20.72,20.72,0,0,0-34.75,0L245.9,57.71,214.72,9.62a20.54,20.54,0,0,0-34.56,0L148.8,58.08,117.43,9.44a20.53,20.53,0,0,0-34.56,0L3.24,132.65a20.89,20.89,0,0,0,0,22.35L108.78,318.2a19.75,19.75,0,0,0,16.59,9H155L36.3,143.92l63.85-99L225.8,238.58l-28.36,43.76-28.17-43.76,10.16-15.81a7.72,7.72,0,0,0,0-8.42L162,187.49l-27.24,42.07a16.2,16.2,0,0,0,0,17.84l45.45,70.44a20.59,20.59,0,0,0,34.56,0l45.46-70.44a16.24,16.24,0,0,0,0-17.84L169.27,88.88l28.17-43.76L225.8,88.88l-10.14,15.59a7.75,7.75,0,0,0,0,8.4L232.94,140l61.42-94.85,63.86,98.8L239.7,327.23h29.63a19.75,19.75,0,0,0,16.59-9l105.35-163a20.17,20.17,0,0,0,0-22.36"/><path d="M111.68,383.9a85.65,85.65,0,1,0,171.3,0V349.51H111.68Z"/></g></g></svg>